# xmcd CD database file
#
# Track frame offsets:
#	150
#	20943
#	43065
#	56674
#	70366
#	85311
#	98460
#	119736
#	141588
#	161919
#	179826
#	192133
#	205860
#	219111
#	231914
#	244346
#	258443
#	271882
#	284904
#	297953
#	311793
#	324492
#	336607
#
# Disc length: 4768 seconds
#
# Revision: 2
# Processed by: cddbd v1.5.2PL0 Copyright (c) Steve Scherf et al.
# Submitted via: CDex 1.70beta2
#
DISCID=83129e17
DTITLE=Coleman Hawkins - The Bebop Years - Drifting on a Reed [CD3)
DYEAR=2000
DGENRE=Jazz
TTITLE0=Battle Of The Saxes
TTITLE1=Louise
TTITLE2=Pick-Up Boys
TTITLE3=Porgy
TTITLE4=Uptown Lullaby
TTITLE5=Salt Peanuts
TTITLE6=Make Believe
TTITLE7=Don't Blame Me
TTITLE8=Just One Of Those Things
TTITLE9=Hallelujah
TTITLE10=Stompin' At The Savoy
TTITLE11=On The Sunny Side Of The Street
TTITLE12=All The Things You Are
TTITLE13=Every Man For Himself
TTITLE14=Look Out Jack
TTITLE15=Under A Blanket Of Blue
TTITLE16=El Salon De Gutbucket
TTITLE17=Undecided
TTITLE18=Recollections
TTITLE19=Drifting On A Reed
TTITLE20=Flyin' Hawk
TTITLE21=On The Bean
TTITLE22=Hawk's Variations, Pt1&2
EXTD=YEAR: 2000
EXTT0=
EXTT1=
EXTT2=
EXTT3=
EXTT4=
EXTT5=
EXTT6=
EXTT7=
EXTT8=
EXTT9=
EXTT10=
EXTT11=
EXTT12=
EXTT13=
EXTT14=
EXTT15=
EXTT16=
EXTT17=
EXTT18=
EXTT19=
EXTT20=
EXTT21=
EXTT22=
PLAYORDER=
